<?xml version="1.0" standalone="no"?>
<!DOCTYPE svg PUBLIC "-//W3C//DTD SVG 20010904//EN"
 "http://www.w3.org/TR/2001/REC-SVG-20010904/DTD/svg10.dtd">
<svg version="1.0" xmlns="http://www.w3.org/2000/svg"
 width="500.000000pt" height="500.000000pt" viewBox="0 0 500.000000 500.000000"
 preserveAspectRatio="xMidYMid meet">

<g transform="translate(0.000000,500.000000) scale(0.100000,-0.100000)"
fill="#000000" stroke="none">
<path d="M0 2500 l0 -2500 2500 0 2500 0 0 2500 0 2500 -2500 0 -2500 0 0
-2500z m2521 1221 c78 -79 -13 -206 -114 -160 -29 13 -57 58 -57 91 2 86 110
130 171 69z m107 -221 c56 -34 63 -67 60 -272 -3 -160 -5 -182 -20 -192 -13
-8 -23 -8 -35 0 -16 10 -19 33 -23 169 -4 114 -8 160 -17 163 -10 3 -13 -83
-13 -409 0 -370 -2 -414 -17 -431 -21 -24 -58 -23 -83 2 -19 19 -20 33 -20
260 0 153 -4 240 -10 240 -6 0 -10 -87 -10 -240 0 -227 -1 -241 -20 -260 -24
-24 -57 -26 -82 -3 -17 15 -18 42 -18 430 0 327 -3 414 -12 411 -10 -3 -14
-49 -18 -163 -4 -136 -7 -159 -22 -169 -13 -8 -23 -8 -35 0 -16 10 -18 33 -21
201 -2 183 -2 191 21 224 36 53 56 59 217 59 128 0 149 -2 178 -20z m-984
-246 c35 -34 8 -104 -41 -104 -27 0 -63 33 -63 58 0 52 68 82 104 46z m386 -3
c14 -26 13 -64 -2 -79 -31 -31 -98 -3 -98 40 0 51 77 80 100 39z m928 -13 c25
-54 -27 -105 -82 -80 -31 14 -41 57 -21 89 23 35 84 30 103 -9z m388 8 c13
-22 14 -29 2 -53 -24 -51 -108 -35 -108 20 0 54 76 78 106 33z m-1250 -131
c24 -24 25 -29 22 -142 -2 -97 -6 -118 -18 -118 -12 0 -16 18 -18 90 -2 49 -7
94 -12 99 -7 7 -10 -79 -10 -236 0 -209 -2 -247 -15 -252 -22 -8 -42 3 -49 27
-3 12 -7 78 -8 147 l-2 125 -6 -144 c-4 -125 -7 -145 -23 -155 -15 -9 -21 -7
-33 8 -11 16 -14 68 -16 255 -1 130 -4 195 -5 144 -3 -63 -8 -95 -18 -103 -28
-23 -35 0 -35 116 0 109 1 116 25 139 22 23 32 25 110 25 78 0 88 -2 111 -25z
m1308 4 c27 -21 27 -21 24 -142 -3 -101 -6 -122 -18 -122 -12 0 -16 19 -18 98
-1 53 -7 97 -12 97 -6 0 -10 -92 -10 -239 0 -250 -4 -271 -44 -255 -14 5 -16
26 -16 150 0 89 -4 144 -10 144 -6 0 -10 -55 -10 -144 0 -138 -1 -145 -21
-151 -12 -4 -25 -3 -30 2 -5 5 -9 116 -10 246 -1 131 -6 240 -11 243 -4 3 -8
-37 -8 -89 0 -78 -3 -96 -16 -101 -9 -3 -20 -4 -25 0 -13 7 -11 221 2 245 15
29 44 38 130 38 63 1 81 -3 103 -20z m-1678 -14 c24 -24 25 -28 22 -147 -3
-115 -4 -123 -23 -123 -18 0 -20 8 -23 95 -2 52 -7 99 -12 104 -7 7 -10 -82
-10 -246 0 -221 -2 -257 -16 -269 -11 -9 -20 -10 -32 -2 -14 9 -17 33 -20 162
-3 201 -22 193 -22 -10 0 -82 -2 -149 -4 -149 -2 0 -11 -3 -19 -6 -8 -3 -22 2
-31 11 -14 14 -16 51 -18 268 -1 139 -4 209 -5 155 -3 -68 -8 -100 -18 -108
-28 -24 -35 0 -35 125 0 163 2 165 142 165 92 0 101 -2 124 -25z m1300 0 c24
-24 25 -28 22 -147 -3 -115 -4 -123 -23 -123 -19 0 -20 8 -23 103 -2 63 -6
100 -12 97 -6 -4 -10 -108 -10 -260 0 -252 0 -254 -22 -261 -39 -12 -48 17
-50 175 l-2 146 -3 -135 c-2 -74 -5 -145 -8 -156 -5 -24 -27 -36 -50 -28 -13
5 -15 44 -15 259 0 152 -4 256 -10 260 -6 3 -10 -34 -12 -97 -3 -95 -4 -103
-23 -103 -19 0 -20 8 -23 124 -2 116 -1 126 19 148 21 21 31 23 121 23 92 0
101 -2 124 -25z m-1773 -107 c66 -35 67 -42 67 -385 0 -328 5 -375 51 -465 26
-50 392 -411 422 -416 20 -4 47 20 47 42 0 5 -69 80 -154 165 -84 86 -160 167
-170 181 -20 31 -21 121 -1 160 40 77 145 111 221 72 22 -11 141 -116 264
-233 338 -323 342 -330 348 -726 l4 -263 -386 0 -386 0 0 99 0 100 -123 158
c-67 87 -166 212 -218 278 -174 217 -169 197 -169 734 0 423 0 425 22 457 13
18 32 37 43 43 28 14 92 13 118 -1z m2512 -23 l35 -36 0 -444 c0 -440 0 -445
-23 -509 -28 -75 -55 -113 -302 -426 l-185 -234 0 -98 0 -98 -385 0 -385 0 0
228 c0 399 20 446 316 728 292 278 300 284 374 284 107 0 191 -111 161 -212
-11 -35 -44 -74 -172 -203 -87 -89 -159 -168 -159 -177 0 -31 12 -48 35 -48
15 0 80 56 213 188 171 166 195 195 224 257 l33 70 5 348 5 349 37 34 c32 29
45 34 88 34 43 0 54 -4 85 -35z m-1415 -2001 c0 -113 34 -104 -386 -104 l-364
0 -10 26 c-6 14 -10 52 -10 85 l0 59 385 0 385 0 0 -66z m940 0 c0 -113 34
-104 -384 -104 l-363 0 -11 25 c-7 14 -12 53 -12 85 l0 60 385 0 385 0 0 -66z"/>
</g>
</svg>
